<svg version="1.1" id="Layer_1" xmlns="http://www.w3.org/2000/svg" xmlns:xlink="http://www.w3.org/1999/xlink" x="0px" y="0px"
	 width="100%" viewBox="0 0 1000 1000" enable-background="new 0 0 1000 1000" xml:space="preserve">
<path fill="#FFFFFF" opacity="1.000000" stroke="none" 
	d="
M537.000000,1001.000000 
	C358.000000,1001.000000 179.500000,1001.000000 1.000000,1001.000000 
	C1.000000,667.666687 1.000000,334.333344 1.000000,1.000000 
	C334.333344,1.000000 667.666687,1.000000 1001.000000,1.000000 
	C1001.000000,334.333344 1001.000000,667.666687 1001.000000,1001.000000 
	C846.500000,1001.000000 692.000000,1001.000000 537.000000,1001.000000 
M55.527870,757.015137 
	C60.891140,761.310364 65.927345,766.113525 71.673988,769.813232 
	C97.221420,786.261169 124.888908,794.980164 155.703323,793.160522 
	C169.871841,792.323914 183.482559,789.755432 196.729416,784.958984 
	C219.357452,776.765808 237.922195,762.408264 254.682373,745.641357 
	C262.814148,737.506470 269.973175,728.405457 277.682770,719.841003 
	C290.596741,705.495239 303.593719,691.224121 316.565765,676.930603 
	C326.546417,665.933289 336.542480,654.949768 346.531647,643.960144 
	C356.520844,632.970520 366.510071,621.980957 376.499298,610.991272 
	C386.488464,600.001709 396.477509,589.011902 406.466797,578.022461 
	C416.456177,567.032959 426.410736,556.011658 436.444519,545.062805 
	C448.277588,532.150696 460.171600,519.294373 472.055939,506.429260 
	C475.463898,502.740051 475.389038,499.207672 471.956665,495.446655 
	C462.170105,484.722961 452.465546,473.924500 442.686218,463.194183 
	C428.563202,447.697845 414.395386,432.242310 400.260803,416.756470 
	C390.024475,405.541473 379.815582,394.301453 369.586517,383.079803 
	C355.798462,367.953857 341.999298,352.838104 328.211639,337.711792 
	C317.982849,326.489868 307.776459,315.247498 297.539154,304.033356 
	C283.403412,288.548767 269.279205,273.053467 255.092148,257.615967 
	C241.063873,242.351273 224.866119,229.974274 205.895493,221.451843 
	C191.242294,214.868988 176.026169,210.325027 159.807816,210.023132 
	C152.453278,209.886230 145.074158,209.665283 137.743027,210.101547 
	C131.409927,210.478424 125.029610,211.290894 118.844704,212.685059 
	C103.873459,216.059784 89.489189,221.246933 76.696739,229.864304 
	C68.998711,235.049927 61.877590,241.108047 54.656937,246.970810 
	C53.416180,247.978241 51.942116,250.405350 52.369030,251.428238 
	C53.490158,254.114471 55.371365,256.594666 57.354012,258.792206 
	C70.841072,273.740936 84.435310,288.592957 97.989357,303.481293 
	C108.099289,314.586395 118.197525,325.702118 128.306931,336.807709 
	C141.860535,351.696838 155.428543,366.572876 168.973938,381.469482 
	C178.741272,392.211212 188.463669,402.993805 198.238770,413.728424 
	C212.131149,428.984497 226.023422,444.240814 239.974030,459.443542 
	C248.693985,468.946167 257.552521,478.321533 266.286102,487.811798 
	C270.282867,492.154877 274.128296,496.637177 277.999084,501.007477 
	C274.184052,505.329315 270.530365,509.570221 266.767914,513.712341 
	C253.118332,528.739258 239.421677,543.723389 225.763611,558.742615 
	C216.107880,569.360657 206.507065,580.028625 196.843567,590.639587 
	C182.838272,606.018005 168.783768,621.351685 154.778397,636.730042 
	C145.114883,647.340942 135.520355,658.014709 125.856880,668.625671 
	C111.851601,684.004150 97.797089,699.337708 83.791870,714.716248 
	C74.128357,725.327393 64.465652,735.939941 54.895813,746.635254 
	C50.286068,751.787231 50.383564,751.874451 55.527870,757.015137 
M734.968750,270.549255 
	C734.111694,271.735382 733.367493,273.026398 732.378906,274.090210 
	C726.952271,279.929932 721.325989,285.590088 716.040649,291.553314 
	C711.161926,297.057709 706.828674,303.050140 701.883484,308.489777 
	C696.901245,313.970306 691.260620,318.852295 686.276611,324.331360 
	C680.993896,330.138794 676.324890,336.503906 671.052307,342.321259 
	C666.302246,347.562042 660.897949,352.209686 656.146667,357.449371 
	C650.648804,363.512268 645.727112,370.097870 640.223694,376.155273 
	C635.355286,381.513794 629.831055,386.276520 624.962219,391.634644 
	C619.458374,397.691589 614.535217,404.275848 609.036926,410.338226 
	C604.285217,415.577545 598.881409,420.225555 594.130127,425.465240 
	C588.632324,431.528168 583.710693,438.113770 578.207336,444.171295 
	C573.338928,449.529877 567.814514,454.292297 562.945312,459.650208 
	C557.217163,465.953186 552.084778,472.799805 546.321106,479.067719 
	C540.631226,485.255432 534.321350,490.874023 528.652954,497.079742 
	C527.499146,498.342957 527.316345,501.329529 527.902588,503.124268 
	C528.567139,505.158752 530.519836,506.818695 532.051453,508.516113 
	C541.778503,519.296265 551.531738,530.052917 561.299866,540.795959 
	C574.846252,555.694397 588.421875,570.566345 601.968689,585.464417 
	C611.737000,596.207153 621.467346,606.984619 631.235229,617.727844 
	C644.781311,632.626648 658.354492,647.500916 671.901184,662.399231 
	C681.669434,673.142090 691.375183,683.941895 701.176880,694.653931 
	C716.231201,711.106384 731.252014,727.591431 746.480652,743.881592 
	C752.023621,749.810913 757.829529,755.570312 764.046509,760.772644 
	C770.510681,766.181702 777.280396,771.390564 784.513123,775.681335 
	C798.891602,784.211426 814.710632,789.169006 831.156250,791.868347 
	C838.423279,793.061157 845.841858,793.816711 853.195862,793.850891 
	C859.877441,793.881958 866.690979,793.257324 873.220947,791.864868 
	C883.778870,789.613403 894.742920,787.811279 904.468262,783.443298 
	C920.035583,776.451416 934.869202,767.754211 947.580811,755.970947 
	C951.832214,752.029968 951.975281,751.761841 947.592102,748.060913 
	C946.830933,747.418213 946.110168,746.707031 945.471191,745.943420 
	C940.534302,740.043274 935.688782,734.064941 930.658508,728.246094 
	C929.291382,726.664673 927.147095,725.755554 925.777344,724.175598 
	C920.630554,718.238831 915.741089,712.078247 910.569397,706.164062 
	C908.863708,704.213501 906.335449,702.981262 904.634949,701.027466 
	C899.694763,695.351501 895.066650,689.403931 890.134338,683.720703 
	C888.545959,681.890564 886.136230,680.773682 884.545410,678.944946 
	C879.497559,673.142334 874.725464,667.100098 869.695374,661.281372 
	C868.328247,659.699829 866.178894,658.793640 864.815735,657.209839 
	C860.015015,651.632019 855.491943,645.814453 850.664673,640.260742 
	C848.965515,638.305786 846.432007,637.076050 844.733154,635.120972 
	C839.906372,629.566650 835.405945,623.728760 830.578918,618.174622 
	C828.879883,616.219727 826.350464,614.988159 824.643372,613.038330 
	C819.358582,607.001953 814.363892,600.711731 809.086304,594.668762 
	C807.491638,592.842773 805.085571,591.724487 803.494751,589.896057 
	C798.446655,584.093628 793.680725,578.045837 788.643188,572.233887 
	C787.165283,570.528687 784.901062,569.505798 783.419250,567.803040 
	C778.261292,561.875427 773.348450,555.734680 768.207031,549.792175 
	C766.733643,548.089294 764.665894,546.911011 763.113892,545.263123 
	C760.935486,542.950439 759.031250,540.381897 756.917725,538.004578 
	C755.726440,536.664551 754.272400,535.558777 753.074829,534.223572 
	C750.953125,531.858093 748.974548,529.364502 746.861389,526.991028 
	C745.668823,525.651672 744.266785,524.499390 743.066223,523.166443 
	C740.939880,520.805542 738.923157,518.346069 736.805420,515.977234 
	C735.609802,514.639954 734.233948,513.461609 733.063843,512.104309 
	C731.073853,509.796021 729.359192,507.220886 727.187012,505.109528 
	C725.740601,503.703552 723.700378,502.908539 721.925903,501.840088 
	C724.849243,499.401123 726.283203,498.287781 727.496399,496.971161 
	C742.608398,480.571594 757.699158,464.152405 772.771484,447.716370 
	C779.576294,440.295837 786.354126,432.850128 793.098633,425.374786 
	C808.120178,408.725494 823.107422,392.045319 838.119751,375.387665 
	C847.394531,365.096375 856.655762,354.792480 865.983521,344.549225 
	C880.213745,328.922333 894.470825,313.319641 908.766052,297.752258 
	C917.377625,288.374420 926.194092,279.182587 934.703979,269.714355 
	C939.626587,264.237335 944.210449,258.444946 948.719971,252.618958 
	C949.413818,251.722580 949.426331,249.536774 948.802429,248.547150 
	C947.637939,246.699936 945.844604,245.216263 944.191528,243.715103 
	C930.731995,231.492615 915.249451,222.720474 898.046509,216.975555 
	C880.222717,211.023285 862.080872,208.246140 843.139771,209.799744 
	C831.984131,210.714752 821.118286,212.387619 810.569275,215.865784 
	C789.168701,222.921860 770.241943,234.188538 754.315308,250.231461 
	C747.895508,256.698120 741.735718,263.422943 734.968750,270.549255 
M265.992188,218.487427 
	C271.693115,224.852554 277.357513,231.250870 283.102264,237.576157 
	C296.720520,252.570679 310.386688,267.521637 324.014557,282.507416 
	C333.759888,293.223785 343.463135,303.978424 353.205597,314.697418 
	C366.717590,329.563751 380.254669,344.407227 393.769684,359.270844 
	C403.626221,370.110931 413.418518,381.009796 423.322479,391.806305 
	C435.476776,405.055969 447.719940,418.224121 459.919586,431.432220 
	C463.722321,435.549316 467.552521,439.642212 471.293732,443.814697 
	C480.955170,454.590088 490.573975,465.403687 500.311584,476.316101 
	C502.209290,474.756195 503.895935,473.684998 505.189301,472.257477 
	C517.113708,459.096130 528.945251,445.850647 540.854065,432.675079 
	C551.013062,421.435425 561.238281,410.255615 571.434021,399.049164 
	C584.841370,384.312714 598.252502,369.579620 611.654602,354.838318 
	C621.510315,343.997742 631.347412,333.140198 641.204895,322.301178 
	C654.721313,307.438873 668.255127,292.592346 681.770081,277.728760 
	C691.626648,266.888672 701.459839,256.027344 711.312561,245.183792 
	C721.388916,234.093994 731.428955,222.970779 741.571106,211.941422 
	C754.079468,198.338867 766.710266,184.848892 779.220398,171.247986 
	C784.780396,165.203217 790.096375,158.933487 795.676392,152.907837 
	C798.581787,149.770340 798.142517,146.828094 795.530884,144.087906 
	C793.396729,141.848633 790.920349,139.913116 788.476685,137.994507 
	C759.580139,115.306648 726.974365,106.798569 690.584229,111.917313 
	C671.207886,114.642838 653.726868,121.693916 637.685059,132.719711 
	C625.098328,141.370865 614.783630,152.361099 604.712646,163.701538 
	C591.374023,178.721481 577.748047,193.487274 564.173157,208.295929 
	C555.361084,217.908920 546.372925,227.360443 537.557922,236.970825 
	C533.577026,241.310852 529.915161,245.942780 525.951721,250.299622 
	C517.767334,259.296448 509.477722,268.197632 500.166718,278.292480 
	C499.216827,276.727966 498.610168,275.293945 497.632782,274.187439 
	C489.364899,264.827728 481.085754,255.476639 472.699951,246.222672 
	C461.967957,234.379608 451.180328,222.586060 440.329590,210.851715 
	C430.571289,200.298737 420.686859,189.862473 410.875458,179.358490 
	C406.822449,175.019409 402.930542,170.523758 398.763397,166.298508 
	C388.766602,156.162521 379.277069,145.404266 368.449493,136.235489 
	C346.987854,118.061821 321.162781,110.849487 293.516785,110.188469 
	C284.802734,109.980103 275.954315,111.542610 267.307800,113.082932 
	C241.693237,117.646004 220.172607,129.955185 202.201050,148.172867 
	C208.978607,155.807617 215.463150,163.261414 222.109222,170.568268 
	C236.522568,186.414627 251.018494,202.185852 265.992188,218.487427 
M390.026093,647.457886 
	C385.883942,651.938965 381.719757,656.399902 377.604675,660.905762 
	C371.034119,668.100220 364.482819,675.312378 357.947632,682.539001 
	C348.680359,692.786804 339.447540,703.065735 330.177246,713.310791 
	C320.348389,724.173157 310.498810,735.016907 300.647614,745.859070 
	C290.572845,756.947327 280.482239,768.021179 270.403809,779.106079 
	C260.437195,790.068054 250.484436,801.042603 240.512085,811.999329 
	C230.203659,823.325195 219.821442,834.584717 209.604309,845.992188 
	C207.219131,848.655151 203.186035,852.397217 203.784821,854.580261 
	C204.687973,857.873047 208.985489,860.244385 211.871719,862.974060 
	C212.326599,863.404358 212.994064,863.602295 213.483597,864.004639 
	C235.971893,882.484436 262.231812,890.836060 290.877747,891.798401 
	C299.741150,892.096130 308.747284,890.381348 317.579590,888.928589 
	C339.967285,885.246338 359.511658,875.108337 376.121857,860.051392 
	C387.227783,849.984009 396.954620,838.379639 407.144653,827.321167 
	C420.868530,812.427673 434.411041,797.367188 448.095703,782.437317 
	C456.793732,772.947815 465.663666,763.615845 474.347778,754.113831 
	C478.653229,749.402771 482.621857,744.384460 486.908783,739.655579 
	C491.513855,734.575745 496.313568,729.672302 501.213959,724.495789 
	C507.103088,731.152832 512.578369,737.493469 518.217712,743.684753 
	C529.426514,755.990784 540.693665,768.244141 551.997620,780.463013 
	C561.417725,790.645691 570.931946,800.741333 580.390137,810.888916 
	C584.437866,815.231812 588.470154,819.589539 592.473206,823.973572 
	C605.743347,838.506714 617.769714,854.226501 633.674438,866.219849 
	C658.427490,884.885254 686.059753,893.246826 717.116943,891.149719 
	C730.519958,890.244751 743.381531,887.805420 755.848633,882.982727 
	C770.481323,877.322449 783.510437,869.101135 795.037720,858.465027 
	C798.449585,855.316956 798.101746,852.065491 795.336304,848.870422 
	C790.179749,842.912415 784.953430,837.012695 779.661194,831.174805 
	C769.263794,819.705261 758.791931,808.303223 748.368408,796.857300 
	C738.393005,785.903381 728.440063,774.929016 718.476807,763.964050 
	C708.513428,752.999268 698.552368,742.032349 688.584900,731.071228 
	C675.183167,716.333435 661.773743,701.602600 648.372437,686.864502 
	C638.405273,675.903015 628.446106,664.934326 618.482666,653.969482 
	C608.519226,643.004700 598.597717,632.001526 588.580017,621.086548 
	C576.424194,607.841736 564.184998,594.673462 551.985962,581.468323 
	C548.183472,577.352234 544.359680,573.255127 540.605591,569.095215 
	C528.597717,555.789124 516.588745,542.483765 504.650421,529.115417 
	C502.038086,526.190125 499.847565,526.296997 497.299255,529.164246 
	C488.562958,538.993835 479.780090,548.782776 470.944061,558.522827 
	C457.224335,573.646301 443.480438,588.748108 429.680725,603.798523 
	C420.981293,613.286377 412.104034,622.611328 403.419586,632.112732 
	C399.001465,636.946472 394.833069,642.008484 390.026093,647.457886 
z"/>
<path fill="#E57000" opacity="1.000000" stroke="none" 
	d="
M55.267941,756.763794 
	C50.383564,751.874451 50.286068,751.787231 54.895813,746.635254 
	C64.465652,735.939941 74.128357,725.327393 83.791870,714.716248 
	C97.797089,699.337708 111.851601,684.004150 125.856880,668.625671 
	C135.520355,658.014709 145.114883,647.340942 154.778397,636.730042 
	C168.783768,621.351685 182.838272,606.018005 196.843567,590.639587 
	C206.507065,580.028625 216.107880,569.360657 225.763611,558.742615 
	C239.421677,543.723389 253.118332,528.739258 266.767914,513.712341 
	C270.530365,509.570221 274.184052,505.329315 277.999084,501.007477 
	C274.128296,496.637177 270.282867,492.154877 266.286102,487.811798 
	C257.552521,478.321533 248.693985,468.946167 239.974030,459.443542 
	C226.023422,444.240814 212.131149,428.984497 198.238770,413.728424 
	C188.463669,402.993805 178.741272,392.211212 168.973938,381.469482 
	C155.428543,366.572876 141.860535,351.696838 128.306931,336.807709 
	C118.197525,325.702118 108.099289,314.586395 97.989357,303.481293 
	C84.435310,288.592957 70.841072,273.740936 57.354012,258.792206 
	C55.371365,256.594666 53.490158,254.114471 52.369030,251.428238 
	C51.942116,250.405350 53.416180,247.978241 54.656937,246.970810 
	C61.877590,241.108047 68.998711,235.049927 76.696739,229.864304 
	C89.489189,221.246933 103.873459,216.059784 118.844704,212.685059 
	C125.029610,211.290894 131.409927,210.478424 137.743027,210.101547 
	C145.074158,209.665283 152.453278,209.886230 159.807816,210.023132 
	C176.026169,210.325027 191.242294,214.868988 205.895493,221.451843 
	C224.866119,229.974274 241.063873,242.351273 255.092148,257.615967 
	C269.279205,273.053467 283.403412,288.548767 297.539154,304.033356 
	C307.776459,315.247498 317.982849,326.489868 328.211639,337.711792 
	C341.999298,352.838104 355.798462,367.953857 369.586517,383.079803 
	C379.815582,394.301453 390.024475,405.541473 400.260803,416.756470 
	C414.395386,432.242310 428.563202,447.697845 442.686218,463.194183 
	C452.465546,473.924500 462.170105,484.722961 471.956665,495.446655 
	C475.389038,499.207672 475.463898,502.740051 472.055939,506.429260 
	C460.171600,519.294373 448.277588,532.150696 436.444519,545.062805 
	C426.410736,556.011658 416.456177,567.032959 406.466797,578.022461 
	C396.477509,589.011902 386.488464,600.001709 376.499298,610.991272 
	C366.510071,621.980957 356.520844,632.970520 346.531647,643.960144 
	C336.542480,654.949768 326.546417,665.933289 316.565765,676.930603 
	C303.593719,691.224121 290.596741,705.495239 277.682770,719.841003 
	C269.973175,728.405457 262.814148,737.506470 254.682373,745.641357 
	C237.922195,762.408264 219.357452,776.765808 196.729416,784.958984 
	C183.482559,789.755432 169.871841,792.323914 155.703323,793.160522 
	C124.888908,794.980164 97.221420,786.261169 71.673988,769.813232 
	C65.927345,766.113525 60.891140,761.310364 55.267941,756.763794 
z"/>
<path fill="#E57000" opacity="1.000000" stroke="none" 
	d="
M735.213196,270.289764 
	C741.735718,263.422943 747.895508,256.698120 754.315308,250.231461 
	C770.241943,234.188538 789.168701,222.921860 810.569275,215.865784 
	C821.118286,212.387619 831.984131,210.714752 843.139771,209.799744 
	C862.080872,208.246140 880.222717,211.023285 898.046509,216.975555 
	C915.249451,222.720474 930.731995,231.492615 944.191528,243.715103 
	C945.844604,245.216263 947.637939,246.699936 948.802429,248.547150 
	C949.426331,249.536774 949.413818,251.722580 948.719971,252.618958 
	C944.210449,258.444946 939.626587,264.237335 934.703979,269.714355 
	C926.194092,279.182587 917.377625,288.374420 908.766052,297.752258 
	C894.470825,313.319641 880.213745,328.922333 865.983521,344.549225 
	C856.655762,354.792480 847.394531,365.096375 838.119751,375.387665 
	C823.107422,392.045319 808.120178,408.725494 793.098633,425.374786 
	C786.354126,432.850128 779.576294,440.295837 772.771484,447.716370 
	C757.699158,464.152405 742.608398,480.571594 727.496399,496.971161 
	C726.283203,498.287781 724.849243,499.401123 721.925903,501.840088 
	C723.700378,502.908539 725.740601,503.703552 727.187012,505.109528 
	C729.359192,507.220886 731.073853,509.796021 733.063843,512.104309 
	C734.233948,513.461609 735.609802,514.639954 736.805420,515.977234 
	C738.923157,518.346069 740.939880,520.805542 743.066223,523.166443 
	C744.266785,524.499390 745.668823,525.651672 746.861389,526.991028 
	C748.974548,529.364502 750.953125,531.858093 753.074829,534.223572 
	C754.272400,535.558777 755.726440,536.664551 756.917725,538.004578 
	C759.031250,540.381897 760.935486,542.950439 763.113892,545.263123 
	C764.665894,546.911011 766.733643,548.089294 768.207031,549.792175 
	C773.348450,555.734680 778.261292,561.875427 783.419250,567.803040 
	C784.901062,569.505798 787.165283,570.528687 788.643188,572.233887 
	C793.680725,578.045837 798.446655,584.093628 803.494751,589.896057 
	C805.085571,591.724487 807.491638,592.842773 809.086304,594.668762 
	C814.363892,600.711731 819.358582,607.001953 824.643372,613.038330 
	C826.350464,614.988159 828.879883,616.219727 830.578918,618.174622 
	C835.405945,623.728760 839.906372,629.566650 844.733154,635.120972 
	C846.432007,637.076050 848.965515,638.305786 850.664673,640.260742 
	C855.491943,645.814453 860.015015,651.632019 864.815735,657.209839 
	C866.178894,658.793640 868.328247,659.699829 869.695374,661.281372 
	C874.725464,667.100098 879.497559,673.142334 884.545410,678.944946 
	C886.136230,680.773682 888.545959,681.890564 890.134338,683.720703 
	C895.066650,689.403931 899.694763,695.351501 904.634949,701.027466 
	C906.335449,702.981262 908.863708,704.213501 910.569397,706.164062 
	C915.741089,712.078247 920.630554,718.238831 925.777344,724.175598 
	C927.147095,725.755554 929.291382,726.664673 930.658508,728.246094 
	C935.688782,734.064941 940.534302,740.043274 945.471191,745.943420 
	C946.110168,746.707031 946.830933,747.418213 947.592102,748.060913 
	C951.975281,751.761841 951.832214,752.029968 947.580811,755.970947 
	C934.869202,767.754211 920.035583,776.451416 904.468262,783.443298 
	C894.742920,787.811279 883.778870,789.613403 873.220947,791.864868 
	C866.690979,793.257324 859.877441,793.881958 853.195862,793.850891 
	C845.841858,793.816711 838.423279,793.061157 831.156250,791.868347 
	C814.710632,789.169006 798.891602,784.211426 784.513123,775.681335 
	C777.280396,771.390564 770.510681,766.181702 764.046509,760.772644 
	C757.829529,755.570312 752.023621,749.810913 746.480652,743.881592 
	C731.252014,727.591431 716.231201,711.106384 701.176880,694.653931 
	C691.375183,683.941895 681.669434,673.142090 671.901184,662.399231 
	C658.354492,647.500916 644.781311,632.626648 631.235229,617.727844 
	C621.467346,606.984619 611.737000,596.207153 601.968689,585.464417 
	C588.421875,570.566345 574.846252,555.694397 561.299866,540.795959 
	C551.531738,530.052917 541.778503,519.296265 532.051453,508.516113 
	C530.519836,506.818695 528.567139,505.158752 527.902588,503.124268 
	C527.316345,501.329529 527.499146,498.342957 528.652954,497.079742 
	C534.321350,490.874023 540.631226,485.255432 546.321106,479.067719 
	C552.084778,472.799805 557.217163,465.953186 562.945312,459.650208 
	C567.814514,454.292297 573.338928,449.529877 578.207336,444.171295 
	C583.710693,438.113770 588.632324,431.528168 594.130127,425.465240 
	C598.881409,420.225555 604.285217,415.577545 609.036926,410.338226 
	C614.535217,404.275848 619.458374,397.691589 624.962219,391.634644 
	C629.831055,386.276520 635.355286,381.513794 640.223694,376.155273 
	C645.727112,370.097870 650.648804,363.512268 656.146667,357.449371 
	C660.897949,352.209686 666.302246,347.562042 671.052307,342.321259 
	C676.324890,336.503906 680.993896,330.138794 686.276611,324.331360 
	C691.260620,318.852295 696.901245,313.970306 701.883484,308.489777 
	C706.828674,303.050140 711.161926,297.057709 716.040649,291.553314 
	C721.325989,285.590088 726.952271,279.929932 732.378906,274.090210 
	C733.367493,273.026398 734.111694,271.735382 735.213196,270.289764 
z"/>
<path fill="#000000" opacity="1.000000" stroke="none" 
	d="
M265.736420,218.237610 
	C251.018494,202.185852 236.522568,186.414627 222.109222,170.568268 
	C215.463150,163.261414 208.978607,155.807617 202.201050,148.172867 
	C220.172607,129.955185 241.693237,117.646004 267.307800,113.082932 
	C275.954315,111.542610 284.802734,109.980103 293.516785,110.188469 
	C321.162781,110.849487 346.987854,118.061821 368.449493,136.235489 
	C379.277069,145.404266 388.766602,156.162521 398.763397,166.298508 
	C402.930542,170.523758 406.822449,175.019409 410.875458,179.358490 
	C420.686859,189.862473 430.571289,200.298737 440.329590,210.851715 
	C451.180328,222.586060 461.967957,234.379608 472.699951,246.222672 
	C481.085754,255.476639 489.364899,264.827728 497.632782,274.187439 
	C498.610168,275.293945 499.216827,276.727966 500.166718,278.292480 
	C509.477722,268.197632 517.767334,259.296448 525.951721,250.299622 
	C529.915161,245.942780 533.577026,241.310852 537.557922,236.970825 
	C546.372925,227.360443 555.361084,217.908920 564.173157,208.295929 
	C577.748047,193.487274 591.374023,178.721481 604.712646,163.701538 
	C614.783630,152.361099 625.098328,141.370865 637.685059,132.719711 
	C653.726868,121.693916 671.207886,114.642838 690.584229,111.917313 
	C726.974365,106.798569 759.580139,115.306648 788.476685,137.994507 
	C790.920349,139.913116 793.396729,141.848633 795.530884,144.087906 
	C798.142517,146.828094 798.581787,149.770340 795.676392,152.907837 
	C790.096375,158.933487 784.780396,165.203217 779.220398,171.247986 
	C766.710266,184.848892 754.079468,198.338867 741.571106,211.941422 
	C731.428955,222.970779 721.388916,234.093994 711.312561,245.183792 
	C701.459839,256.027344 691.626648,266.888672 681.770081,277.728760 
	C668.255127,292.592346 654.721313,307.438873 641.204895,322.301178 
	C631.347412,333.140198 621.510315,343.997742 611.654602,354.838318 
	C598.252502,369.579620 584.841370,384.312714 571.434021,399.049164 
	C561.238281,410.255615 551.013062,421.435425 540.854065,432.675079 
	C528.945251,445.850647 517.113708,459.096130 505.189301,472.257477 
	C503.895935,473.684998 502.209290,474.756195 500.311584,476.316101 
	C490.573975,465.403687 480.955170,454.590088 471.293732,443.814697 
	C467.552521,439.642212 463.722321,435.549316 459.919586,431.432220 
	C447.719940,418.224121 435.476776,405.055969 423.322479,391.806305 
	C413.418518,381.009796 403.626221,370.110931 393.769684,359.270844 
	C380.254669,344.407227 366.717590,329.563751 353.205597,314.697418 
	C343.463135,303.978424 333.759888,293.223785 324.014557,282.507416 
	C310.386688,267.521637 296.720520,252.570679 283.102264,237.576157 
	C277.357513,231.250870 271.693115,224.852554 265.736420,218.237610 
z"/>
<path fill="#000000" opacity="1.000000" stroke="none" 
	d="
M390.288940,647.212585 
	C394.833069,642.008484 399.001465,636.946472 403.419586,632.112732 
	C412.104034,622.611328 420.981293,613.286377 429.680725,603.798523 
	C443.480438,588.748108 457.224335,573.646301 470.944061,558.522827 
	C479.780090,548.782776 488.562958,538.993835 497.299255,529.164246 
	C499.847565,526.296997 502.038086,526.190125 504.650421,529.115417 
	C516.588745,542.483765 528.597717,555.789124 540.605591,569.095215 
	C544.359680,573.255127 548.183472,577.352234 551.985962,581.468323 
	C564.184998,594.673462 576.424194,607.841736 588.580017,621.086548 
	C598.597717,632.001526 608.519226,643.004700 618.482666,653.969482 
	C628.446106,664.934326 638.405273,675.903015 648.372437,686.864502 
	C661.773743,701.602600 675.183167,716.333435 688.584900,731.071228 
	C698.552368,742.032349 708.513428,752.999268 718.476807,763.964050 
	C728.440063,774.929016 738.393005,785.903381 748.368408,796.857300 
	C758.791931,808.303223 769.263794,819.705261 779.661194,831.174805 
	C784.953430,837.012695 790.179749,842.912415 795.336304,848.870422 
	C798.101746,852.065491 798.449585,855.316956 795.037720,858.465027 
	C783.510437,869.101135 770.481323,877.322449 755.848633,882.982727 
	C743.381531,887.805420 730.519958,890.244751 717.116943,891.149719 
	C686.059753,893.246826 658.427490,884.885254 633.674438,866.219849 
	C617.769714,854.226501 605.743347,838.506714 592.473206,823.973572 
	C588.470154,819.589539 584.437866,815.231812 580.390137,810.888916 
	C570.931946,800.741333 561.417725,790.645691 551.997620,780.463013 
	C540.693665,768.244141 529.426514,755.990784 518.217712,743.684753 
	C512.578369,737.493469 507.103088,731.152832 501.213959,724.495789 
	C496.313568,729.672302 491.513855,734.575745 486.908783,739.655579 
	C482.621857,744.384460 478.653229,749.402771 474.347778,754.113831 
	C465.663666,763.615845 456.793732,772.947815 448.095703,782.437317 
	C434.411041,797.367188 420.868530,812.427673 407.144653,827.321167 
	C396.954620,838.379639 387.227783,849.984009 376.121857,860.051392 
	C359.511658,875.108337 339.967285,885.246338 317.579590,888.928589 
	C308.747284,890.381348 299.741150,892.096130 290.877747,891.798401 
	C262.231812,890.836060 235.971893,882.484436 213.483597,864.004639 
	C212.994064,863.602295 212.326599,863.404358 211.871719,862.974060 
	C208.985489,860.244385 204.687973,857.873047 203.784821,854.580261 
	C203.186035,852.397217 207.219131,848.655151 209.604309,845.992188 
	C219.821442,834.584717 230.203659,823.325195 240.512085,811.999329 
	C250.484436,801.042603 260.437195,790.068054 270.403809,779.106079 
	C280.482239,768.021179 290.572845,756.947327 300.647614,745.859070 
	C310.498810,735.016907 320.348389,724.173157 330.177246,713.310791 
	C339.447540,703.065735 348.680359,692.786804 357.947632,682.539001 
	C364.482819,675.312378 371.034119,668.100220 377.604675,660.905762 
	C381.719757,656.399902 385.883942,651.938965 390.288940,647.212585 
z"/>
</svg>